:SAMPLES-PER-SECOND 30
:FULLY-SPECIFIED
:DEGREES
187
root  59.6095 24.8317 3.23788 155.237 -1.10477 -177.242
RightUpLeg  -54.0146 -12.3348 1.27973
RightLeg  76.0366 -2.44067 -12.6095
RightFoot  2.06458 0.564552 -4.67933
RightToes  0.000482159 0.542163 -0.142577
Spine  44.6072 -3.2854 8.70773
Spine1  -3.01823 -0.763629 -0.353475
HEad  -15.6259 2.23399 -1.37861
LeftShoulder1  10.3094 -15.6011 -47.0902
LeftArm  -0.507952 4.25419 -25.8729
LeftForeArm  89.7233 -76.4148 -34.482
LeftHand  -0.25398 0.0180481 5.50724
RightShoulder  5.62709 10.6269 33.8727
RightArm  2.20051 -5.53158 37.5159
RightForeArm  48.2565 73.9817 35.8227
RightHand  -2.47216 6.37458 -24.4314
LeftUpLeg  -55.0933 5.98579 3.89605
LeftLeg  76.7592 1.88976 10.719
LeftFoot  2.2094 -0.265403 2.06204
LeftToes  1.06246e-005 4.65855e-005 -8.18503e-006
188
root  59.6132 24.8263 3.22989 155.247 -1.11964 -177.281
RightUpLeg  -54.0484 -12.3996 1.27868
RightLeg  76.0809 -2.42778 -12.5968
RightFoot  1.99951 0.576194 -4.80401
RightToes  0.000482159 0.542163 -0.142577
Spine  44.6925 -3.24547 8.53904
Spine1  -2.95029 -0.78025 -0.199464
HEad  -15.665 2.03196 -1.57997
LeftShoulder1  10.3075 -15.5472 -47.2172
LeftArm  -0.211803 4.16076 -25.8189
LeftForeArm  90.2658 -76.5703 -34.952
LeftHand  -0.25398 0.0180481 5.50724
RightShoulder  5.58733 10.5967 33.6776
RightArm  2.41076 -5.30044 37.5733
RightForeArm  47.6559 73.8679 35.5926
RightHand  -2.58175 6.62554 -24.9651
LeftUpLeg  -55.1141 6.01846 3.85026
LeftLeg  76.7865 1.87588 10.6787
LeftFoot  2.18365 -0.265833 2.09544
LeftToes  1.06246e-005 4.65855e-005 -8.18503e-006
189
root  59.6121 24.8211 3.22691 155.258 -1.12904 -177.291
RightUpLeg  -54.0945 -12.4634 1.28951
RightLeg  76.1146 -2.40933 -12.5485
RightFoot  1.97413 0.599378 -5.01256
RightToes  0.000482159 0.542163 -0.142577
Spine  44.7686 -3.23792 8.49796
Spine1  -2.8406 -0.763841 -0.218439
HEad  -15.8629 1.95255 -1.88384
LeftShoulder1  10.3203 -15.6116 -47.1144
LeftArm  0.408825 4.16695 -26.0115
LeftForeArm  91.2444 -76.8332 -35.7684
LeftHand  -0.25398 0.0180481 5.50724
RightShoulder  5.56398 10.5289 33.7029
RightArm  2.51 -5.0118 37.5342
RightForeArm  47.6829 73.7889 35.3211
RightHand  -2.54033 6.49561 -24.8334
LeftUpLeg  -55.1404 5.99539 3.83694
LeftLeg  76.8101 1.87157 10.6804
LeftFoot  2.16679 -0.263143 2.08218
LeftToes  1.06246e-005 4.65855e-005 -8.18503e-006
190
root  59.6082 24.8186 3.22817 155.311 -1.11436 -177.298
RightUpLeg  -54.1898 -12.4952 1.29513
RightLeg  76.1328 -2.38748 -12.4695
RightFoot  2.02838 0.62864 -5.23796
RightToes  0.000482159 0.542163 -0.142577
Spine  44.9087 -3.28698 8.54471
Spine1  -2.93115 -0.769572 -0.365577
HEad  -15.9844 2.0953 -2.13982
LeftShoulder1  10.3196 -15.6842 -46.9287
LeftArm  0.593207 4.38384 -26.1751
LeftForeArm  91.9916 -77.0375 -36.4393
LeftHand  -0.25398 0.0180481 5.50724
RightShoulder  5.6007 10.5526 33.8955
RightArm  2.4686 -4.9828 37.4285
RightForeArm  48.4071 73.8487 35.3328
RightHand  -2.45692 6.3345 -24.3703
LeftUpLeg  -55.2021 5.99203 3.82738
LeftLeg  76.8176 1.8763 10.7125
LeftFoot  2.16539 -0.259281 2.05247
LeftToes  1.06246e-005 4.65855e-005 -8.18503e-006
191
root  59.6064 24.8173 3.22545 155.42 -1.07883 -177.323
RightUpLeg  -54.32 -12.5025 1.32433
RightLeg  76.1305 -2.37615 -12.4157
RightFoot  2.08304 0.636217 -5.27738
RightToes  0.000482159 0.542163 -0.142577
Spine  45.1088 -3.33725 8.54548
Spine1  -3.24505 -0.792672 -0.478249
HEad  -15.8786 2.33999 -2.26121
LeftShoulder1  10.3068 -15.6636 -46.9207
LeftArm  0.0370433 4.678 -26.0628
LeftForeArm  92.1689 -77.0997 -36.661
LeftHand  -0.25398 0.0180481 5.50724
RightShoulder  5.65394 10.6617 33.964
RightArm  2.35666 -5.32176 37.3529
RightForeArm  49.1734 74.1074 36.0141
RightHand  -2.3993 6.17257 -24.1553
LeftUpLeg  -55.3127 6.0406 3.80578
LeftLeg  76.8249 1.87822 10.7309
LeftFoot  2.15816 -0.25706 2.05001
LeftToes  1.06246e-005 4.65855e-005 -8.18503e-006
192
root  59.6072 24.8174 3.21585 155.579 -1.049 -177.326
RightUpLeg  -54.4657 -12.4181 1.35585
RightLeg  76.0982 -2.33684 -12.204
RightFoot  2.16498 0.607564 -4.99935
RightToes  0.000482159 0.542163 -0.142577
Spine  45.2416 -3.32118 8.52226
Spine1  -3.5152 -0.756784 -0.503978
HEad  -15.6661 2.45613 -2.3829
LeftShoulder1  10.311 -15.6304 -47.0235
LeftArm  -0.601566 4.85334 -25.8954
LeftForeArm  92.1436 -77.1565 -36.9034
LeftHand  -0.25398 0.0180481 5.50724
RightShoulder  5.65198 10.7052 33.8285
RightArm  1.95984 -5.89318 37.3028
RightForeArm  50.3866 74.6899 37.8377
RightHand  -2.05772 4.96477 -23.1342
LeftUpLeg  -55.4719 6.08039 3.80467
LeftLeg  76.8434 1.87717 10.728
LeftFoot  2.11249 -0.255076 2.05401
LeftToes  1.06246e-005 4.65855e-005 -8.18503e-006
193
root  59.606 24.8229 3.20603 155.766 -1.04749 -177.289
RightUpLeg  -54.6332 -12.083 1.19796
RightLeg  76.0734 -2.12734 -11.23
RightFoot  2.48724 0.562903 -4.49736
RightToes  0.000482159 0.542163 -0.142577
Spine  45.2742 -3.26233 8.56818
Spine1  -3.57359 -0.666477 -0.500819
HEad  -15.5412 2.409 -2.6812
LeftShoulder1  10.3263 -15.6759 -46.981
LeftArm  -0.578831 4.97231 -26.0478
LeftForeArm  93.151 -77.5153 -38.2796
LeftHand  -0.25398 0.0180481 5.50724
RightShoulder  5.59444 10.6152 33.6762
RightArm  0.94521 -6.5678 37.1778
RightForeArm  53.3256 75.6962 41.3403
RightHand  -1.20166 1.73648 -19.4002
LeftUpLeg  -55.6513 6.05849 3.83164
LeftLeg  76.861 1.87876 10.7503
LeftFoot  2.00163 -0.244708 1.98845
LeftToes  1.06246e-005 4.65855e-005 -8.18503e-006
194
root  59.6023 24.8341 3.20124 155.944 -1.03389 -177.25
RightUpLeg  -54.8064 -11.3531 0.680198
RightLeg  76.138 -1.62237 -8.9667
RightFoot  3.07114 0.501417 -3.79831
RightToes  0.000482159 0.542163 -0.142577
Spine  45.3959 -3.22852 8.62757
Spine1  -3.60167 -0.615295 -0.472699
HEad  -15.5409 2.45084 -3.11155
LeftShoulder1  10.3024 -15.7124 -46.7778
LeftArm  -0.215501 5.25399 -26.3993
LeftForeArm  95.956 -78.2722 -41.468
LeftHand  -0.25398 0.0180481 5.50724
RightShoulder  5.52845 10.4828 33.5804
RightArm  -0.621866 -7.33869 36.9584
RightForeArm  57.9455 76.9443 46.8183
RightHand  -0.301076 -2.91013 -12.8547
LeftUpLeg  -55.8117 6.04195 3.86971
LeftLeg  76.8752 1.88385 10.8046
LeftFoot  1.80758 -0.220532 1.81843
LeftToes  1.06246e-005 4.65855e-005 -8.18503e-006
195
root  59.6031 24.8452 3.19532 156.156 -0.92926 -177.252
RightUpLeg  -54.9931 -10.2146 -0.0929722
RightLeg  76.3402 -0.908399 -5.73312
RightFoot  3.48745 0.358891 -2.57242
RightToes  0.000482159 0.542163 -0.142577
Spine  45.7404 -3.19968 8.54402
Spine1  -3.82994 -0.618293 -0.368098
HEad  -15.6203 2.77422 -3.50853
LeftShoulder1  10.2226 -15.6263 -46.6204
LeftArm  -0.544642 5.74351 -26.4379
LeftForeArm  100.494 -79.1937 -46.1322
LeftHand  -0.25398 0.0180481 5.50724
RightShoulder  5.46112 10.3803 33.3886
RightArm  -2.35236 -8.20137 36.7541
RightForeArm  62.4636 78.0186 53.6667
RightHand  0.0548689 -7.25476 -5.882
LeftUpLeg  -56.0019 6.15966 3.92141
LeftLeg  76.9135 1.87999 10.8214
LeftFoot  1.53469 -0.19001 1.60162
LeftToes  1.06246e-005 4.65855e-005 -8.18503e-006
196
root  59.6138 24.8525 3.17754 156.534 -0.742432 -177.319
RightUpLeg  -55.3066 -8.8583 -0.881858
RightLeg  76.6554 -0.261244 -2.69884
RightFoot  3.30879 0.0931281 -0.53943
RightToes  0.000482159 0.542163 -0.142577
Spine  46.1758 -3.1 8.26784
Spine1  -4.17924 -0.602331 -0.219327
HEad  -15.8872 3.30483 -3.84089
LeftShoulder1  10.1383 -15.4912 -46.564
LeftArm  -1.94117 6.36508 -26.0118
LeftForeArm  106.495 -80.1055 -52.1237
LeftHand  -0.25398 0.0180481 5.50724
RightShoulder  5.36777 10.2652 33.041
RightArm  -4.04377 -9.07347 36.6349
RightForeArm  65.3098 78.6472 59.9278
RightHand  -0.0238781 -10.1422 -0.953505
LeftUpLeg  -56.361 6.43863 3.9503
LeftLeg  76.988 1.85636 10.7784
LeftFoot  1.22967 -0.164158 1.42309
LeftToes  1.06246e-005 4.65855e-005 -8.18503e-006
197
root  59.6287 24.8625 3.14815 157.115 -0.593781 -177.459
RightUpLeg  -55.8124 -7.63244 -1.58166
RightLeg  77.0469 0.0984156 -0.947245
RightFoot  2.64922 -0.213987 1.89418
RightToes  0.000482159 0.542163 -0.142577
Spine  46.5942 -2.97196 7.90829
Spine1  -4.40047 -0.577129 -0.144327
HEad  -16.4831 3.82279 -4.15925
LeftShoulder1  10.0931 -15.4484 -46.4584
LeftArm  -3.73322 7.15375 -25.5231
LeftForeArm  114.315 -81.0117 -61.053
LeftHand  -0.25398 0.0180481 5.50724
RightShoulder  5.25956 10.1024 32.7132
RightArm  -5.69481 -9.86277 36.5107
RightForeArm  65.6911 78.8411 63.3333
RightHand  -0.140917 -11.328 1.19114
LeftUpLeg  -56.9133 6.76013 3.86315
LeftLeg  77.0564 1.84163 10.7737
LeftFoot  0.964746 -0.146817 1.30834
LeftToes  1.06246e-005 4.65855e-005 -8.18503e-006
198
root  59.6346 24.8895 3.12349 157.725 -0.538879 -177.61
RightUpLeg  -56.3458 -6.81045 -2.1058
RightLeg  77.5025 0.164389 -0.636526
RightFoot  1.98632 -0.414985 3.66104
RightToes  0.000482159 0.542163 -0.142577
Spine  47.1364 -2.95719 7.63347
Spine1  -4.49116 -0.64138 -0.173308
HEad  -17.3761 4.23517 -4.40836
LeftShoulder1  10.0617 -15.4782 -46.2344
LeftArm  -5.28317 8.0972 -25.2813
LeftForeArm  125.235 -81.7418 -74.5533
LeftHand  -0.25398 0.0180481 5.50724
RightShoulder  5.1749 9.93571 32.5632
RightArm  -7.15644 -10.5347 36.2294
RightForeArm  62.3959 78.6617 63.1769
RightHand  -0.105013 -11.0889 0.452352
LeftUpLeg  -57.4583 6.99783 3.68062
LeftLeg  77.043 1.86789 10.8911
LeftFoot  0.794105 -0.136902 1.24174
LeftToes  1.06246e-005 4.65855e-005 -8.18503e-006
199
root  59.6319 24.9362 3.10605 158.302 -0.509964 -177.679
RightUpLeg  -56.8311 -6.39695 -2.25743
RightLeg  78.0691 0.0895462 -1.10394
RightFoot  1.54061 -0.429418 3.89177
RightToes  0.000482159 0.542163 -0.142577
Spine  48.0082 -3.0738 7.49559
Spine1  -4.60978 -0.792532 -0.187378
HEad  -18.4088 4.5876 -4.52495
LeftShoulder1  10.0042 -15.463 -45.9997
LeftArm  -7.02776 8.92411 -25.0106
LeftForeArm  137.641 -81.9474 -89.7892
LeftHand  -0.25398 0.0180481 5.50724
RightShoulder  5.12092 9.80578 32.5336
RightArm  -8.27877 -11.1319 35.7574
RightForeArm  55.3733 78.1765 60.8968
RightHand  0.0373003 -9.93121 -2.76346
LeftUpLeg  -57.9385 7.15713 3.53402
LeftLeg  76.9482 1.9185 11.0467
LeftFoot  0.700794 -0.134249 1.24605
LeftToes  1.06246e-005 4.65855e-005 -8.18503e-006
